<mxfile host="app.diagrams.net" modified="2022-11-11T07:08:13.708Z" agent="5.0 (Windows NT 10.0; Win64; x64) AppleWebKit/537.36 (KHTML, like Gecko) Chrome/107.0.0.0 Safari/537.36" etag="lEr3iXkDt-ohuc3ve2ov" version="20.5.3" type="github">
  <diagram id="PSZdFAp0BA90IestcXNp" name="페이지-1">
    <mxGraphModel dx="1422" dy="737" grid="1" gridSize="10" guides="1" tooltips="1" connect="1" arrows="1" fold="1" page="1" pageScale="1" pageWidth="827" pageHeight="1169" math="0" shadow="0">
      <root>
        <mxCell id="0" />
        <mxCell id="1" parent="0" />
        <mxCell id="4XpDSk_gngaqJ6pI8pgP-42" style="edgeStyle=orthogonalEdgeStyle;rounded=0;orthogonalLoop=1;jettySize=auto;html=1;exitX=0.5;exitY=0;exitDx=0;exitDy=0;exitPerimeter=0;entryX=0.5;entryY=0;entryDx=0;entryDy=0;" parent="1" source="4XpDSk_gngaqJ6pI8pgP-1" target="4XpDSk_gngaqJ6pI8pgP-39" edge="1">
          <mxGeometry relative="1" as="geometry" />
        </mxCell>
        <mxCell id="4XpDSk_gngaqJ6pI8pgP-70" style="edgeStyle=orthogonalEdgeStyle;rounded=0;orthogonalLoop=1;jettySize=auto;html=1;" parent="1" source="4XpDSk_gngaqJ6pI8pgP-1" target="4XpDSk_gngaqJ6pI8pgP-3" edge="1">
          <mxGeometry relative="1" as="geometry" />
        </mxCell>
        <mxCell id="4XpDSk_gngaqJ6pI8pgP-1" value="관리자" style="shape=umlActor;verticalLabelPosition=bottom;verticalAlign=top;html=1;outlineConnect=0;" parent="1" vertex="1">
          <mxGeometry x="50" y="100" width="70" height="120" as="geometry" />
        </mxCell>
        <mxCell id="4XpDSk_gngaqJ6pI8pgP-48" style="edgeStyle=orthogonalEdgeStyle;rounded=0;orthogonalLoop=1;jettySize=auto;html=1;exitX=1;exitY=0.3333333333333333;exitDx=0;exitDy=0;exitPerimeter=0;entryX=0;entryY=0.5;entryDx=0;entryDy=0;" parent="1" source="4XpDSk_gngaqJ6pI8pgP-2" target="4XpDSk_gngaqJ6pI8pgP-46" edge="1">
          <mxGeometry relative="1" as="geometry" />
        </mxCell>
        <mxCell id="4XpDSk_gngaqJ6pI8pgP-50" style="edgeStyle=orthogonalEdgeStyle;rounded=0;orthogonalLoop=1;jettySize=auto;html=1;exitX=0.5;exitY=0.5;exitDx=0;exitDy=0;exitPerimeter=0;entryX=0;entryY=0.5;entryDx=0;entryDy=0;" parent="1" source="4XpDSk_gngaqJ6pI8pgP-2" target="4XpDSk_gngaqJ6pI8pgP-47" edge="1">
          <mxGeometry relative="1" as="geometry" />
        </mxCell>
        <mxCell id="4XpDSk_gngaqJ6pI8pgP-51" style="edgeStyle=orthogonalEdgeStyle;rounded=0;orthogonalLoop=1;jettySize=auto;html=1;exitX=1;exitY=1;exitDx=0;exitDy=0;exitPerimeter=0;entryX=0;entryY=0.5;entryDx=0;entryDy=0;" parent="1" source="4XpDSk_gngaqJ6pI8pgP-2" target="4XpDSk_gngaqJ6pI8pgP-12" edge="1">
          <mxGeometry relative="1" as="geometry" />
        </mxCell>
        <mxCell id="4XpDSk_gngaqJ6pI8pgP-52" style="edgeStyle=orthogonalEdgeStyle;rounded=0;orthogonalLoop=1;jettySize=auto;html=1;exitX=0.75;exitY=0.1;exitDx=0;exitDy=0;exitPerimeter=0;entryX=0;entryY=0.5;entryDx=0;entryDy=0;" parent="1" source="4XpDSk_gngaqJ6pI8pgP-2" target="4XpDSk_gngaqJ6pI8pgP-45" edge="1">
          <mxGeometry relative="1" as="geometry" />
        </mxCell>
        <mxCell id="4XpDSk_gngaqJ6pI8pgP-2" value="비회원" style="shape=umlActor;verticalLabelPosition=bottom;verticalAlign=top;html=1;outlineConnect=0;" parent="1" vertex="1">
          <mxGeometry x="50" y="600" width="70" height="130" as="geometry" />
        </mxCell>
        <mxCell id="4XpDSk_gngaqJ6pI8pgP-60" style="edgeStyle=orthogonalEdgeStyle;rounded=0;orthogonalLoop=1;jettySize=auto;html=1;exitX=0.75;exitY=0.1;exitDx=0;exitDy=0;exitPerimeter=0;entryX=0;entryY=0.5;entryDx=0;entryDy=0;" parent="1" source="4XpDSk_gngaqJ6pI8pgP-3" target="4XpDSk_gngaqJ6pI8pgP-57" edge="1">
          <mxGeometry relative="1" as="geometry" />
        </mxCell>
        <mxCell id="4XpDSk_gngaqJ6pI8pgP-61" style="edgeStyle=orthogonalEdgeStyle;rounded=0;orthogonalLoop=1;jettySize=auto;html=1;exitX=1;exitY=0.3333333333333333;exitDx=0;exitDy=0;exitPerimeter=0;entryX=0;entryY=0.5;entryDx=0;entryDy=0;" parent="1" source="4XpDSk_gngaqJ6pI8pgP-3" target="4XpDSk_gngaqJ6pI8pgP-58" edge="1">
          <mxGeometry relative="1" as="geometry" />
        </mxCell>
        <mxCell id="4XpDSk_gngaqJ6pI8pgP-62" style="edgeStyle=orthogonalEdgeStyle;rounded=0;orthogonalLoop=1;jettySize=auto;html=1;exitX=1;exitY=1;exitDx=0;exitDy=0;exitPerimeter=0;entryX=0;entryY=0.5;entryDx=0;entryDy=0;" parent="1" source="4XpDSk_gngaqJ6pI8pgP-3" target="4XpDSk_gngaqJ6pI8pgP-59" edge="1">
          <mxGeometry relative="1" as="geometry" />
        </mxCell>
        <mxCell id="4XpDSk_gngaqJ6pI8pgP-71" style="edgeStyle=orthogonalEdgeStyle;rounded=0;orthogonalLoop=1;jettySize=auto;html=1;" parent="1" source="4XpDSk_gngaqJ6pI8pgP-3" target="4XpDSk_gngaqJ6pI8pgP-2" edge="1">
          <mxGeometry relative="1" as="geometry" />
        </mxCell>
        <mxCell id="4XpDSk_gngaqJ6pI8pgP-3" value="회원" style="shape=umlActor;verticalLabelPosition=bottom;verticalAlign=top;html=1;outlineConnect=0;" parent="1" vertex="1">
          <mxGeometry x="50" y="320" width="70" height="120" as="geometry" />
        </mxCell>
        <mxCell id="4XpDSk_gngaqJ6pI8pgP-12" value="자유게시판 조회" style="ellipse;whiteSpace=wrap;html=1;" parent="1" vertex="1">
          <mxGeometry x="190" y="720" width="120" height="35" as="geometry" />
        </mxCell>
        <mxCell id="4XpDSk_gngaqJ6pI8pgP-39" value="공지사항 등록" style="ellipse;whiteSpace=wrap;html=1;" parent="1" vertex="1">
          <mxGeometry x="130" y="100" width="120" height="30" as="geometry" />
        </mxCell>
        <mxCell id="4XpDSk_gngaqJ6pI8pgP-45" value="공지사항 조회" style="ellipse;whiteSpace=wrap;html=1;" parent="1" vertex="1">
          <mxGeometry x="190" y="600" width="120" height="30" as="geometry" />
        </mxCell>
        <mxCell id="4XpDSk_gngaqJ6pI8pgP-46" value="책 리스트 조회" style="ellipse;whiteSpace=wrap;html=1;" parent="1" vertex="1">
          <mxGeometry x="190" y="640" width="120" height="30" as="geometry" />
        </mxCell>
        <mxCell id="4XpDSk_gngaqJ6pI8pgP-47" value="책 리뷰 조회" style="ellipse;whiteSpace=wrap;html=1;" parent="1" vertex="1">
          <mxGeometry x="190" y="680" width="120" height="30" as="geometry" />
        </mxCell>
        <mxCell id="4XpDSk_gngaqJ6pI8pgP-57" value="책 리스트 등록" style="ellipse;whiteSpace=wrap;html=1;" parent="1" vertex="1">
          <mxGeometry x="190" y="300" width="120" height="30" as="geometry" />
        </mxCell>
        <mxCell id="4XpDSk_gngaqJ6pI8pgP-58" value="책 리뷰 등록" style="ellipse;whiteSpace=wrap;html=1;" parent="1" vertex="1">
          <mxGeometry x="190" y="340" width="120" height="30" as="geometry" />
        </mxCell>
        <mxCell id="4XpDSk_gngaqJ6pI8pgP-59" value="자유게시판 등록" style="ellipse;whiteSpace=wrap;html=1;" parent="1" vertex="1">
          <mxGeometry x="190" y="380" width="120" height="30" as="geometry" />
        </mxCell>
        <mxCell id="4XpDSk_gngaqJ6pI8pgP-66" value="" style="endArrow=none;dashed=1;html=1;rounded=0;exitX=1;exitY=0.5;exitDx=0;exitDy=0;entryX=0.5;entryY=1;entryDx=0;entryDy=0;" parent="1" source="4XpDSk_gngaqJ6pI8pgP-59" target="4XpDSk_gngaqJ6pI8pgP-69" edge="1">
          <mxGeometry width="50" height="50" relative="1" as="geometry">
            <mxPoint x="390" y="430" as="sourcePoint" />
            <mxPoint x="560" y="360" as="targetPoint" />
          </mxGeometry>
        </mxCell>
        <mxCell id="4XpDSk_gngaqJ6pI8pgP-67" value="" style="endArrow=none;dashed=1;html=1;rounded=0;exitX=1;exitY=0.5;exitDx=0;exitDy=0;entryX=0.5;entryY=0;entryDx=0;entryDy=0;" parent="1" target="4XpDSk_gngaqJ6pI8pgP-69" edge="1">
          <mxGeometry width="50" height="50" relative="1" as="geometry">
            <mxPoint x="310" y="315" as="sourcePoint" />
            <mxPoint x="560" y="360" as="targetPoint" />
          </mxGeometry>
        </mxCell>
        <mxCell id="4XpDSk_gngaqJ6pI8pgP-68" value="" style="endArrow=none;dashed=1;html=1;rounded=0;exitX=1;exitY=0.5;exitDx=0;exitDy=0;entryX=0;entryY=0.5;entryDx=0;entryDy=0;" parent="1" target="4XpDSk_gngaqJ6pI8pgP-69" edge="1">
          <mxGeometry width="50" height="50" relative="1" as="geometry">
            <mxPoint x="310" y="355" as="sourcePoint" />
            <mxPoint x="560" y="360" as="targetPoint" />
          </mxGeometry>
        </mxCell>
        <mxCell id="4XpDSk_gngaqJ6pI8pgP-69" value="로그인" style="ellipse;whiteSpace=wrap;html=1;" parent="1" vertex="1">
          <mxGeometry x="560" y="340" width="120" height="30" as="geometry" />
        </mxCell>
      </root>
    </mxGraphModel>
  </diagram>
</mxfile>
